<mxfile host="app.diagrams.net" modified="2024-03-16T17:15:48.154Z" agent="Mozilla/5.0 (Windows NT 10.0; Win64; x64) AppleWebKit/537.36 (KHTML, like Gecko) Chrome/122.0.0.0 Safari/537.36" etag="3gVyyOSwM1ox2vawag6q" version="24.0.7" type="device">
  <diagram name="Page-1" id="Kl4rZJa-ZVwgFzGYaZ7S">
    <mxGraphModel dx="1613" dy="668" grid="1" gridSize="10" guides="1" tooltips="1" connect="1" arrows="1" fold="1" page="1" pageScale="1" pageWidth="850" pageHeight="1100" math="0" shadow="0">
      <root>
        <mxCell id="0" />
        <mxCell id="1" parent="0" />
        <mxCell id="AoI-eLncvdubCN6_XCuJ-24" style="edgeStyle=orthogonalEdgeStyle;rounded=0;orthogonalLoop=1;jettySize=auto;html=1;" edge="1" parent="1" source="AoI-eLncvdubCN6_XCuJ-1">
          <mxGeometry relative="1" as="geometry">
            <mxPoint x="410" y="110" as="targetPoint" />
          </mxGeometry>
        </mxCell>
        <mxCell id="AoI-eLncvdubCN6_XCuJ-1" value="Start" style="rounded=1;whiteSpace=wrap;html=1;" vertex="1" parent="1">
          <mxGeometry x="350" y="10" width="120" height="60" as="geometry" />
        </mxCell>
        <mxCell id="AoI-eLncvdubCN6_XCuJ-25" style="edgeStyle=orthogonalEdgeStyle;rounded=0;orthogonalLoop=1;jettySize=auto;html=1;exitX=1;exitY=0;exitDx=0;exitDy=0;entryX=0;entryY=0;entryDx=0;entryDy=0;" edge="1" parent="1" source="AoI-eLncvdubCN6_XCuJ-13" target="AoI-eLncvdubCN6_XCuJ-14">
          <mxGeometry relative="1" as="geometry" />
        </mxCell>
        <mxCell id="AoI-eLncvdubCN6_XCuJ-13" value="firstDigit % 5 == 0" style="rhombus;whiteSpace=wrap;html=1;" vertex="1" parent="1">
          <mxGeometry x="40" y="600" width="150" height="150" as="geometry" />
        </mxCell>
        <mxCell id="AoI-eLncvdubCN6_XCuJ-26" style="edgeStyle=orthogonalEdgeStyle;rounded=0;orthogonalLoop=1;jettySize=auto;html=1;exitX=1;exitY=0;exitDx=0;exitDy=0;entryX=0;entryY=0;entryDx=0;entryDy=0;" edge="1" parent="1" source="AoI-eLncvdubCN6_XCuJ-14" target="AoI-eLncvdubCN6_XCuJ-15">
          <mxGeometry relative="1" as="geometry" />
        </mxCell>
        <mxCell id="AoI-eLncvdubCN6_XCuJ-14" value="secondDigit % 5 == 0" style="rhombus;whiteSpace=wrap;html=1;" vertex="1" parent="1">
          <mxGeometry x="220" y="600" width="150" height="150" as="geometry" />
        </mxCell>
        <mxCell id="AoI-eLncvdubCN6_XCuJ-27" style="edgeStyle=orthogonalEdgeStyle;rounded=0;orthogonalLoop=1;jettySize=auto;html=1;exitX=1;exitY=0;exitDx=0;exitDy=0;entryX=0;entryY=0;entryDx=0;entryDy=0;" edge="1" parent="1" source="AoI-eLncvdubCN6_XCuJ-15" target="AoI-eLncvdubCN6_XCuJ-16">
          <mxGeometry relative="1" as="geometry" />
        </mxCell>
        <mxCell id="AoI-eLncvdubCN6_XCuJ-48" style="edgeStyle=orthogonalEdgeStyle;rounded=0;orthogonalLoop=1;jettySize=auto;html=1;exitX=0.5;exitY=1;exitDx=0;exitDy=0;entryX=0;entryY=1;entryDx=0;entryDy=0;" edge="1" parent="1" source="AoI-eLncvdubCN6_XCuJ-15" target="AoI-eLncvdubCN6_XCuJ-31">
          <mxGeometry relative="1" as="geometry" />
        </mxCell>
        <mxCell id="AoI-eLncvdubCN6_XCuJ-15" value="thirdDigit % 5 == 0" style="rhombus;whiteSpace=wrap;html=1;" vertex="1" parent="1">
          <mxGeometry x="410" y="600" width="150" height="150" as="geometry" />
        </mxCell>
        <mxCell id="AoI-eLncvdubCN6_XCuJ-28" style="edgeStyle=orthogonalEdgeStyle;rounded=0;orthogonalLoop=1;jettySize=auto;html=1;exitX=1;exitY=0;exitDx=0;exitDy=0;entryX=0;entryY=0;entryDx=0;entryDy=0;" edge="1" parent="1" source="AoI-eLncvdubCN6_XCuJ-16" target="AoI-eLncvdubCN6_XCuJ-17">
          <mxGeometry relative="1" as="geometry" />
        </mxCell>
        <mxCell id="AoI-eLncvdubCN6_XCuJ-49" style="edgeStyle=orthogonalEdgeStyle;rounded=0;orthogonalLoop=1;jettySize=auto;html=1;entryX=0.5;entryY=0;entryDx=0;entryDy=0;" edge="1" parent="1" source="AoI-eLncvdubCN6_XCuJ-16" target="AoI-eLncvdubCN6_XCuJ-43">
          <mxGeometry relative="1" as="geometry" />
        </mxCell>
        <mxCell id="AoI-eLncvdubCN6_XCuJ-16" value="fourthDigit % 5 == 0" style="rhombus;whiteSpace=wrap;html=1;" vertex="1" parent="1">
          <mxGeometry x="590" y="600" width="150" height="150" as="geometry" />
        </mxCell>
        <mxCell id="AoI-eLncvdubCN6_XCuJ-50" style="edgeStyle=orthogonalEdgeStyle;rounded=0;orthogonalLoop=1;jettySize=auto;html=1;exitX=0.5;exitY=1;exitDx=0;exitDy=0;entryX=0;entryY=1;entryDx=0;entryDy=0;" edge="1" parent="1" source="AoI-eLncvdubCN6_XCuJ-17" target="AoI-eLncvdubCN6_XCuJ-45">
          <mxGeometry relative="1" as="geometry" />
        </mxCell>
        <mxCell id="AoI-eLncvdubCN6_XCuJ-17" value="fifthDigit % 5 == 0" style="rhombus;whiteSpace=wrap;html=1;" vertex="1" parent="1">
          <mxGeometry x="760" y="600" width="150" height="150" as="geometry" />
        </mxCell>
        <mxCell id="AoI-eLncvdubCN6_XCuJ-29" value="Yes?" style="text;html=1;align=center;verticalAlign=middle;whiteSpace=wrap;rounded=0;" vertex="1" parent="1">
          <mxGeometry x="115" y="750" width="60" height="30" as="geometry" />
        </mxCell>
        <mxCell id="AoI-eLncvdubCN6_XCuJ-30" value="Yes?" style="text;html=1;align=center;verticalAlign=middle;whiteSpace=wrap;rounded=0;" vertex="1" parent="1">
          <mxGeometry x="300" y="750" width="60" height="30" as="geometry" />
        </mxCell>
        <mxCell id="AoI-eLncvdubCN6_XCuJ-31" value="Yes?" style="text;html=1;align=center;verticalAlign=middle;whiteSpace=wrap;rounded=0;" vertex="1" parent="1">
          <mxGeometry x="480" y="750" width="60" height="30" as="geometry" />
        </mxCell>
        <mxCell id="AoI-eLncvdubCN6_XCuJ-32" value="Yes?" style="text;html=1;align=center;verticalAlign=middle;whiteSpace=wrap;rounded=0;" vertex="1" parent="1">
          <mxGeometry x="670" y="750" width="60" height="30" as="geometry" />
        </mxCell>
        <mxCell id="AoI-eLncvdubCN6_XCuJ-35" style="edgeStyle=orthogonalEdgeStyle;rounded=0;orthogonalLoop=1;jettySize=auto;html=1;" edge="1" parent="1" source="AoI-eLncvdubCN6_XCuJ-33">
          <mxGeometry relative="1" as="geometry">
            <mxPoint x="410" y="210" as="targetPoint" />
          </mxGeometry>
        </mxCell>
        <mxCell id="AoI-eLncvdubCN6_XCuJ-33" value="The entered 5 digit number" style="shape=document;whiteSpace=wrap;html=1;boundedLbl=1;" vertex="1" parent="1">
          <mxGeometry x="350" y="110" width="120" height="80" as="geometry" />
        </mxCell>
        <mxCell id="AoI-eLncvdubCN6_XCuJ-39" style="edgeStyle=orthogonalEdgeStyle;rounded=0;orthogonalLoop=1;jettySize=auto;html=1;entryX=0.5;entryY=0;entryDx=0;entryDy=0;" edge="1" parent="1" source="AoI-eLncvdubCN6_XCuJ-37" target="AoI-eLncvdubCN6_XCuJ-38">
          <mxGeometry relative="1" as="geometry" />
        </mxCell>
        <mxCell id="AoI-eLncvdubCN6_XCuJ-37" value="int number;&lt;div&gt;int firstDigit;&lt;/div&gt;&lt;div&gt;int secondDigit;&lt;/div&gt;&lt;div&gt;int thirdDigit;&lt;/div&gt;&lt;div&gt;int fourthDigit;&lt;/div&gt;&lt;div&gt;int fifthDigit;&lt;/div&gt;" style="shape=parallelogram;perimeter=parallelogramPerimeter;whiteSpace=wrap;html=1;fixedSize=1;" vertex="1" parent="1">
          <mxGeometry x="300" y="210" width="220" height="100" as="geometry" />
        </mxCell>
        <mxCell id="AoI-eLncvdubCN6_XCuJ-57" style="edgeStyle=orthogonalEdgeStyle;rounded=0;orthogonalLoop=1;jettySize=auto;html=1;" edge="1" parent="1" source="AoI-eLncvdubCN6_XCuJ-38" target="AoI-eLncvdubCN6_XCuJ-13">
          <mxGeometry relative="1" as="geometry" />
        </mxCell>
        <mxCell id="AoI-eLncvdubCN6_XCuJ-38" value="&lt;div&gt;firstDigit = number / 10000;&lt;/div&gt;&lt;div&gt;secondDigit = number % 10000 / 1000;&lt;/div&gt;&lt;div&gt;thirdDigit = number % 1000/100;&lt;/div&gt;&lt;div&gt;fourthDigit = number % 100/10;&lt;/div&gt;&lt;div&gt;fifthDigit = number % 10;&lt;/div&gt;" style="whiteSpace=wrap;html=1;aspect=fixed;" vertex="1" parent="1">
          <mxGeometry x="320" y="350" width="180" height="180" as="geometry" />
        </mxCell>
        <mxCell id="AoI-eLncvdubCN6_XCuJ-40" value="result *= firstDigit;" style="rounded=0;whiteSpace=wrap;html=1;" vertex="1" parent="1">
          <mxGeometry x="55" y="780" width="120" height="60" as="geometry" />
        </mxCell>
        <mxCell id="AoI-eLncvdubCN6_XCuJ-41" value="result *= secondDigit;" style="rounded=0;whiteSpace=wrap;html=1;" vertex="1" parent="1">
          <mxGeometry x="230" y="780" width="120" height="60" as="geometry" />
        </mxCell>
        <mxCell id="AoI-eLncvdubCN6_XCuJ-42" value="result *= thirdDigit;" style="rounded=0;whiteSpace=wrap;html=1;" vertex="1" parent="1">
          <mxGeometry x="420" y="780" width="120" height="60" as="geometry" />
        </mxCell>
        <mxCell id="AoI-eLncvdubCN6_XCuJ-43" value="result *= fourthDigit;" style="rounded=0;whiteSpace=wrap;html=1;" vertex="1" parent="1">
          <mxGeometry x="600" y="780" width="120" height="60" as="geometry" />
        </mxCell>
        <mxCell id="AoI-eLncvdubCN6_XCuJ-44" value="result *= fifthDigit;" style="rounded=0;whiteSpace=wrap;html=1;" vertex="1" parent="1">
          <mxGeometry x="775" y="780" width="120" height="60" as="geometry" />
        </mxCell>
        <mxCell id="AoI-eLncvdubCN6_XCuJ-45" value="Yes?" style="text;html=1;align=center;verticalAlign=middle;whiteSpace=wrap;rounded=0;" vertex="1" parent="1">
          <mxGeometry x="835" y="750" width="60" height="30" as="geometry" />
        </mxCell>
        <mxCell id="AoI-eLncvdubCN6_XCuJ-46" style="edgeStyle=orthogonalEdgeStyle;rounded=0;orthogonalLoop=1;jettySize=auto;html=1;exitX=0;exitY=0;exitDx=0;exitDy=0;entryX=0;entryY=1;entryDx=0;entryDy=0;" edge="1" parent="1" source="AoI-eLncvdubCN6_XCuJ-29" target="AoI-eLncvdubCN6_XCuJ-29">
          <mxGeometry relative="1" as="geometry" />
        </mxCell>
        <mxCell id="AoI-eLncvdubCN6_XCuJ-47" style="edgeStyle=orthogonalEdgeStyle;rounded=0;orthogonalLoop=1;jettySize=auto;html=1;exitX=0.5;exitY=1;exitDx=0;exitDy=0;entryX=0.551;entryY=0.035;entryDx=0;entryDy=0;entryPerimeter=0;" edge="1" parent="1" source="AoI-eLncvdubCN6_XCuJ-14" target="AoI-eLncvdubCN6_XCuJ-41">
          <mxGeometry relative="1" as="geometry" />
        </mxCell>
        <mxCell id="AoI-eLncvdubCN6_XCuJ-51" value="No?" style="text;html=1;align=center;verticalAlign=middle;whiteSpace=wrap;rounded=0;" vertex="1" parent="1">
          <mxGeometry x="170" y="610" width="60" height="30" as="geometry" />
        </mxCell>
        <mxCell id="AoI-eLncvdubCN6_XCuJ-53" value="No?" style="text;html=1;align=center;verticalAlign=middle;whiteSpace=wrap;rounded=0;" vertex="1" parent="1">
          <mxGeometry x="360" y="610" width="60" height="30" as="geometry" />
        </mxCell>
        <mxCell id="AoI-eLncvdubCN6_XCuJ-54" value="No?" style="text;html=1;align=center;verticalAlign=middle;whiteSpace=wrap;rounded=0;" vertex="1" parent="1">
          <mxGeometry x="540" y="610" width="60" height="30" as="geometry" />
        </mxCell>
        <mxCell id="AoI-eLncvdubCN6_XCuJ-55" value="No?" style="text;html=1;align=center;verticalAlign=middle;whiteSpace=wrap;rounded=0;" vertex="1" parent="1">
          <mxGeometry x="715" y="610" width="60" height="30" as="geometry" />
        </mxCell>
        <mxCell id="AoI-eLncvdubCN6_XCuJ-58" value="&quot;The result is:&quot;+result" style="shape=document;whiteSpace=wrap;html=1;boundedLbl=1;" vertex="1" parent="1">
          <mxGeometry x="1025" y="610" width="250" height="145" as="geometry" />
        </mxCell>
        <mxCell id="AoI-eLncvdubCN6_XCuJ-59" style="edgeStyle=orthogonalEdgeStyle;rounded=0;orthogonalLoop=1;jettySize=auto;html=1;exitX=1;exitY=0.5;exitDx=0;exitDy=0;entryX=0.008;entryY=0.414;entryDx=0;entryDy=0;entryPerimeter=0;" edge="1" parent="1" source="AoI-eLncvdubCN6_XCuJ-17" target="AoI-eLncvdubCN6_XCuJ-58">
          <mxGeometry relative="1" as="geometry">
            <Array as="points">
              <mxPoint x="1027" y="675" />
            </Array>
          </mxGeometry>
        </mxCell>
      </root>
    </mxGraphModel>
  </diagram>
</mxfile>
